<svg width="345" height="478" viewBox="0 0 345 478" fill="none" xmlns="http://www.w3.org/2000/svg">
<mask id="path-1-inside-1_61_26" fill="white">
<path fill-rule="evenodd" clip-rule="evenodd" d="M345 478V172.5V172H344.999C344.73 76.9608 267.602 0 172.5 0C77.3976 0 0.270355 76.9608 0.000701904 172H0V172.5V478H345ZM336 465.061V175.5V175.026H335.999C335.744 84.9455 262.641 12 172.5 12C82.3595 12 9.25626 84.9455 9.00067 175.026H9V175.5V465.061H336Z"/>
</mask>
<path fill-rule="evenodd" clip-rule="evenodd" d="M345 478V172.5V172H344.999C344.73 76.9608 267.602 0 172.5 0C77.3976 0 0.270355 76.9608 0.000701904 172H0V172.5V478H345ZM336 465.061V175.5V175.026H335.999C335.744 84.9455 262.641 12 172.5 12C82.3595 12 9.25626 84.9455 9.00067 175.026H9V175.5V465.061H336Z" fill="white"/>
<path d="M345 478V479H346V478H345ZM345 172H346V171H345V172ZM344.999 172L343.999 172.003L344.002 173H344.999V172ZM0.000701904 172V173H0.997869L1.0007 172.003L0.000701904 172ZM0 172V171H-1V172H0ZM0 478H-1V479H0V478ZM336 465.061V466.061H337V465.061H336ZM336 175.026H337V174.026H336V175.026ZM335.999 175.026L334.999 175.029L335.002 176.026H335.999V175.026ZM9.00067 175.026V176.026H9.99784L10.0007 175.029L9.00067 175.026ZM9 175.026V174.026H8V175.026H9ZM9 465.061H8V466.061H9V465.061ZM344 172.5V478H346V172.5H344ZM344 172V172.5H346V172H344ZM344.999 173H345V171H344.999V173ZM172.5 1C267.051 1 343.731 77.5146 343.999 172.003L345.999 171.997C345.728 76.4069 268.154 -1 172.5 -1V1ZM1.0007 172.003C1.26879 77.5146 77.949 1 172.5 1V-1C76.8463 -1 -0.728077 76.4069 -0.999294 171.997L1.0007 172.003ZM0 173H0.000701904V171H0V173ZM1 172.5V172H-1V172.5H1ZM1 478V172.5H-1V478H1ZM345 477H0V479H345V477ZM335 175.5V465.061H337V175.5H335ZM335 175.026V175.5H337V175.026H335ZM335.999 176.026H336V174.026H335.999V176.026ZM172.5 13C262.089 13 334.745 85.4993 334.999 175.029L336.999 175.023C336.742 84.3916 263.192 11 172.5 11V13ZM10.0007 175.029C10.2547 85.4993 82.9108 13 172.5 13V11C81.8081 11 8.25782 84.3916 8.00068 175.023L10.0007 175.029ZM9 176.026H9.00067V174.026H9V176.026ZM10 175.5V175.026H8V175.5H10ZM10 465.061V175.5H8V465.061H10ZM336 464.061H9V466.061H336V464.061Z" fill="black" mask="url(#path-1-inside-1_61_26)"/>
<mask id="path-3-inside-2_61_26" fill="white">
<path fill-rule="evenodd" clip-rule="evenodd" d="M328.008 178.574V455.869H17V178.574V178.12H17.0006C17.2437 91.8555 86.7719 22 172.504 22C258.236 22 327.765 91.8555 328.008 178.12H328.008V178.574Z"/>
</mask>
<path fill-rule="evenodd" clip-rule="evenodd" d="M328.008 178.574V455.869H17V178.574V178.12H17.0006C17.2437 91.8555 86.7719 22 172.504 22C258.236 22 327.765 91.8555 328.008 178.12H328.008V178.574Z" fill="white"/>
<path d="M328.008 455.869V456.869H329.008V455.869H328.008ZM17 455.869H16V456.869H17V455.869ZM17 178.12V177.12H16V178.12H17ZM17.0006 178.12V179.12H17.9978L18.0006 178.123L17.0006 178.12ZM328.008 178.12L327.008 178.123L327.01 179.12H328.008V178.12ZM328.008 178.12H329.008V177.12H328.008V178.12ZM327.008 178.574V455.869H329.008V178.574H327.008ZM328.008 454.869H17V456.869H328.008V454.869ZM18 455.869V178.574H16V455.869H18ZM18 178.574V178.12H16V178.574H18ZM17 179.12H17.0006V177.12H17V179.12ZM18.0006 178.123C18.2422 92.4029 87.3296 23 172.504 23V21C86.2141 21 16.2453 91.3081 16.0006 178.117L18.0006 178.123ZM172.504 23C257.679 23 326.766 92.4029 327.008 178.123L329.008 178.117C328.763 91.3081 258.794 21 172.504 21V23ZM328.008 179.12H328.008V177.12H328.008V179.12ZM327.008 178.12V178.574H329.008V178.12H327.008Z" fill="black" mask="url(#path-3-inside-2_61_26)"/>
</svg>
