<svg width="204" height="59" viewBox="0 0 204 59" fill="none" xmlns="http://www.w3.org/2000/svg">
<path d="M21.6183 22.8986C21.6183 22.8986 28.6897 13.0349 28.6897 0C28.6897 13.2636 37.5795 22.2797 37.5795 22.2797C37.5795 22.2797 44.3446 29 60 29C45.245 29 38.3877 38.5769 38.3877 38.5769C38.3877 38.5769 30.104 49.1667 30.104 59C30.104 49.1667 21.4163 38.5769 21.4163 38.5769C21.4163 38.5769 15.5318 31.3566 0 31.3566C15.3067 31.3566 21.6183 22.8986 21.6183 22.8986Z" fill="#B1D9F5" stroke="black"/>
<path d="M165.618 22.8986C165.618 22.8986 172.69 13.0349 172.69 0C172.69 13.2636 181.58 22.2797 181.58 22.2797C181.58 22.2797 188.345 29 204 29C189.245 29 182.388 38.5769 182.388 38.5769C182.388 38.5769 174.104 49.1667 174.104 59C174.104 49.1667 165.416 38.5769 165.416 38.5769C165.416 38.5769 159.532 31.3566 144 31.3566C159.307 31.3566 165.618 22.8986 165.618 22.8986Z" fill="#B1D9F5" stroke="black"/>
<path d="M93.6183 22.8986C93.6183 22.8986 100.69 13.0349 100.69 0C100.69 13.2636 109.58 22.2797 109.58 22.2797C109.58 22.2797 116.345 29 132 29C117.245 29 110.388 38.5769 110.388 38.5769C110.388 38.5769 102.104 49.1667 102.104 59C102.104 49.1667 93.4163 38.5769 93.4163 38.5769C93.4163 38.5769 87.5318 31.3566 72 31.3566C87.3067 31.3566 93.6183 22.8986 93.6183 22.8986Z" fill="#B1D9F5" stroke="black"/>
</svg>
