<svg width="1085" height="438" viewBox="0 0 1085 438" fill="none" xmlns="http://www.w3.org/2000/svg">
<circle cx="217" cy="219" r="215.5" stroke="black" stroke-width="3"/>
<circle cx="434" cy="219" r="215.5" fill="white" stroke="black" stroke-width="3"/>
<path d="M550.5 33.5C580.5 7.89997 630 1.81614 651 1.97422C770.845 1.43616 868.434 98.1532 868.972 217.998C869.51 337.842 772.793 435.432 652.949 435.97C630.132 433.98 575.4 429.4 549 407" stroke="black" stroke-width="3"/>
<circle cx="868" cy="219" r="215.5" stroke="black" stroke-width="3"/>
<path d="M154 261C152.533 265.067 150.933 268.367 149.2 270.9C147.467 273.5 145.4 275.367 143 276.5C140.6 277.7 137.6 278.3 134 278.3V270.3C138.8 270.3 142.433 269.533 144.9 268C147.367 266.533 149.333 263.767 150.8 259.7L152.1 256H149.2L134.5 214C133.833 212.067 133.333 210.933 133 210.6C132.667 210.2 131.967 209.933 130.9 209.8L125.8 209.2V206.5H148.6V209.2L143.5 209.8C142.567 209.867 142.033 210.1 141.9 210.5C141.767 210.9 142.033 212.067 142.7 214L154.7 248.6L166.8 213.9C167.4 211.967 167.633 210.833 167.5 210.5C167.433 210.167 166.9 209.933 165.9 209.8L160.7 209.2V206.5H179V209.2L173.9 209.8C172.9 209.933 172.233 210.167 171.9 210.5C171.567 210.833 171.067 211.967 170.4 213.9L154 261ZM226.379 230.2V232.2C226.379 239.733 224.479 245.767 220.679 250.3C216.946 254.767 211.612 257 204.679 257C197.812 257 192.479 254.767 188.679 250.3C184.946 245.767 183.079 239.733 183.079 232.2V230.2C183.079 222.733 184.946 216.767 188.679 212.3C192.412 207.767 197.746 205.5 204.679 205.5C211.612 205.5 216.946 207.767 220.679 212.3C224.479 216.767 226.379 222.733 226.379 230.2ZM217.379 228.2C217.379 221.267 216.279 216.3 214.079 213.3C211.946 210.233 208.812 208.7 204.679 208.7C200.612 208.7 197.479 210.233 195.279 213.3C193.146 216.3 192.079 221.267 192.079 228.2V234.2C192.079 241.2 193.146 246.233 195.279 249.3C197.479 252.3 200.612 253.8 204.679 253.8C208.812 253.8 211.946 252.3 214.079 249.3C216.279 246.233 217.379 241.2 217.379 234.2V228.2ZM289.543 253.4V256H274.143V248C271.81 251.133 269.143 253.433 266.143 254.9C263.21 256.3 260.276 257 257.343 257C252.61 257 248.91 255.5 246.243 252.5C243.643 249.433 242.343 245.133 242.343 239.6V214.6C242.343 212.267 242.243 210.9 242.043 210.5C241.843 210.1 241.21 209.833 240.143 209.7L234.643 209.2V206.5H250.543V239.5C250.543 244.433 251.276 247.933 252.743 250C254.276 252 256.476 253 259.343 253C261.476 253 263.81 252.333 266.343 251C268.943 249.667 271.376 247.1 273.643 243.3V214.6C273.643 212.267 273.543 210.9 273.343 210.5C273.143 210.033 272.51 209.767 271.443 209.7L263.943 209.2V206.5H281.843V247.9C281.843 250.233 281.943 251.6 282.143 252C282.343 252.4 282.976 252.667 284.043 252.8L289.543 253.4ZM294.506 184.7V182H310.406V213.7C312.34 210.833 314.54 208.767 317.006 207.5C319.473 206.167 322.14 205.5 325.006 205.5C330.74 205.5 335.173 207.667 338.306 212C341.506 216.333 343.106 222.4 343.106 230.2V232.2C343.106 239.8 341.273 245.833 337.606 250.3C334.006 254.767 328.94 257 322.406 257C317.206 257 312.94 255.3 309.606 251.9C308.673 252.433 307.806 253.1 307.006 253.9C306.206 254.7 305.406 255.567 304.606 256.5H302.206V190.1C302.206 187.767 302.106 186.4 301.906 186C301.706 185.6 301.073 185.333 300.006 185.2L294.506 184.7ZM323.706 209.1C321.64 209.1 319.473 209.767 317.206 211.1C315.006 212.433 312.74 215.133 310.406 219.2V247.8C313.273 251.733 317.073 253.7 321.806 253.7C326.14 253.7 329.273 252.067 331.206 248.8C333.14 245.467 334.106 240.933 334.106 235.2V227.2C334.106 220.933 333.206 216.367 331.406 213.5C329.606 210.567 327.04 209.1 323.706 209.1ZM364.93 195.3C363.33 195.3 361.997 194.8 360.93 193.8C359.93 192.733 359.43 191.367 359.43 189.7C359.43 188.1 359.93 186.8 360.93 185.8C361.997 184.8 363.33 184.3 364.93 184.3C366.53 184.3 367.83 184.8 368.83 185.8C369.897 186.8 370.43 188.1 370.43 189.7C370.43 191.367 369.897 192.733 368.83 193.8C367.83 194.8 366.53 195.3 364.93 195.3ZM353.23 209.2V206.5H369.13V247.9C369.13 250.233 369.23 251.6 369.43 252C369.63 252.4 370.264 252.667 371.33 252.8L376.83 253.4V256H353.23V253.4L358.73 252.8C359.797 252.667 360.43 252.4 360.63 252C360.83 251.6 360.93 250.233 360.93 247.9V214.6C360.93 212.267 360.83 210.9 360.63 210.5C360.43 210.1 359.797 209.833 358.73 209.7L353.23 209.2ZM439.013 253.4V256H415.413V253.4L420.913 252.8C421.98 252.667 422.613 252.4 422.813 252C423.013 251.6 423.113 250.233 423.113 247.9V223C423.113 218.067 422.313 214.6 420.713 212.6C419.113 210.533 416.813 209.5 413.813 209.5C411.613 209.5 409.18 210.167 406.513 211.5C403.847 212.833 401.347 215.433 399.013 219.3V247.9C399.013 250.233 399.113 251.6 399.313 252C399.513 252.4 400.147 252.667 401.213 252.8L406.713 253.4V256H383.113V253.4L388.613 252.8C389.68 252.667 390.313 252.4 390.513 252C390.713 251.6 390.813 250.233 390.813 247.9V214.6C390.813 212.267 390.713 210.9 390.513 210.5C390.313 210.1 389.68 209.833 388.613 209.7L383.113 209.2V206.5H398.513V214.6C400.913 211.4 403.613 209.1 406.613 207.7C409.68 206.233 412.747 205.5 415.813 205.5C420.747 205.5 424.547 207.033 427.213 210.1C429.947 213.1 431.313 217.367 431.313 222.9V247.9C431.313 250.233 431.413 251.6 431.613 252C431.813 252.4 432.447 252.667 433.513 252.8L439.013 253.4ZM455.238 193.3C455.238 195.9 454.404 198.967 452.738 202.5C451.138 205.967 448.938 209.4 446.138 212.8L444.038 210.9C446.171 208.167 447.704 205.733 448.638 203.6C449.571 201.4 450.071 199.367 450.137 197.5H449.938C448.471 197.5 447.238 197.033 446.238 196.1C445.238 195.1 444.738 193.8 444.738 192.2C444.738 190.667 445.238 189.433 446.238 188.5C447.238 187.5 448.471 187 449.938 187C451.471 187 452.738 187.533 453.738 188.6C454.738 189.667 455.238 191.233 455.238 193.3ZM482.534 235.8L476.434 234.3C468.1 232.167 463.934 227.367 463.934 219.9C463.934 217.433 464.5 215.1 465.634 212.9C466.767 210.7 468.567 208.933 471.034 207.6C473.567 206.2 476.8 205.5 480.734 205.5C485.134 205.5 488.667 206.233 491.334 207.7C494 209.167 495.867 211.067 496.934 213.4C498 215.733 498.334 218.267 497.934 221L490.134 222.4C490.934 218.067 490.467 214.7 488.734 212.3C487.067 209.9 484.3 208.7 480.434 208.7C477.434 208.7 475.034 209.467 473.234 211C471.434 212.467 470.534 214.633 470.534 217.5C470.534 219.633 471.2 221.533 472.534 223.2C473.867 224.8 476.1 226 479.234 226.8L485.534 228.3C489.934 229.367 493.334 231.067 495.734 233.4C498.2 235.733 499.434 238.8 499.434 242.6C499.434 246.867 497.867 250.333 494.734 253C491.667 255.667 487.267 257 481.534 257C478.8 257 476.134 256.6 473.534 255.8C471 254.933 468.767 253.6 466.834 251.8C464.967 249.933 463.6 247.533 462.734 244.6L468.334 242.6C469.067 246.8 470.667 249.733 473.134 251.4C475.6 253.067 478.434 253.9 481.634 253.9C483.5 253.9 485.267 253.6 486.934 253C488.667 252.4 490.067 251.467 491.134 250.2C492.2 248.867 492.734 247.167 492.734 245.1C492.734 242.967 492 241.133 490.534 239.6C489.067 238.067 486.4 236.8 482.534 235.8ZM530.753 209.1V206.5H546.153V214.5C548.153 211.367 550.386 209.1 552.853 207.7C555.386 206.233 558.186 205.5 561.253 205.5C566.986 205.5 571.42 207.667 574.553 212C577.753 216.333 579.353 222.4 579.353 230.2V232.2C579.353 239.8 577.52 245.833 573.853 250.3C570.186 254.767 565.086 257 558.553 257C553.886 257 549.92 255.567 546.653 252.7V269.2C546.653 271.467 546.753 272.8 546.953 273.2C547.153 273.667 547.786 273.967 548.853 274.1L556.353 274.6V277.3H530.753V274.6L536.253 274.1C537.32 273.967 537.953 273.667 538.153 273.2C538.353 272.8 538.453 271.467 538.453 269.2V214.6C538.453 212.267 538.353 210.9 538.153 210.5C537.953 210.1 537.32 209.833 536.253 209.7L530.753 209.1ZM559.953 209.1C557.886 209.1 555.72 209.767 553.453 211.1C551.253 212.433 548.986 215.133 546.653 219.2V247.8C549.52 251.733 553.32 253.7 558.053 253.7C562.386 253.7 565.52 252.067 567.453 248.8C569.386 245.467 570.353 240.933 570.353 235.2V227.2C570.353 220.933 569.453 216.367 567.653 213.5C565.853 210.567 563.286 209.1 559.953 209.1ZM635.461 230.2V232.2C635.461 239.733 633.561 245.767 629.761 250.3C626.028 254.767 620.694 257 613.761 257C606.894 257 601.561 254.767 597.761 250.3C594.028 245.767 592.161 239.733 592.161 232.2V230.2C592.161 222.733 594.028 216.767 597.761 212.3C601.494 207.767 606.828 205.5 613.761 205.5C620.694 205.5 626.028 207.767 629.761 212.3C633.561 216.767 635.461 222.733 635.461 230.2ZM626.461 228.2C626.461 221.267 625.361 216.3 623.161 213.3C621.028 210.233 617.894 208.7 613.761 208.7C609.694 208.7 606.561 210.233 604.361 213.3C602.228 216.3 601.161 221.267 601.161 228.2V234.2C601.161 241.2 602.228 246.233 604.361 249.3C606.561 252.3 609.694 253.8 613.761 253.8C617.894 253.8 621.028 252.3 623.161 249.3C625.361 246.233 626.461 241.2 626.461 234.2V228.2ZM645.125 209.2V206.5H660.525V214.5C662.858 211.367 665.192 209.1 667.525 207.7C669.925 206.233 672.358 205.5 674.825 205.5C676.958 205.5 678.958 206.133 680.825 207.4C682.692 208.667 684.258 210.7 685.525 213.5L679.025 217.4C678.025 215 676.892 213.333 675.625 212.4C674.358 211.467 672.958 211 671.425 211C669.758 211 668.092 211.533 666.425 212.6C664.825 213.667 663.025 215.667 661.025 218.6V247.9C661.025 250.233 661.125 251.633 661.325 252.1C661.525 252.5 662.158 252.733 663.225 252.8L670.725 253.4V256H645.125V253.4L650.625 252.8C651.692 252.667 652.325 252.4 652.525 252C652.725 251.6 652.825 250.233 652.825 247.9V214.6C652.825 212.267 652.725 210.9 652.525 210.5C652.325 210.1 651.692 209.833 650.625 209.7L645.125 209.2ZM722.07 245.8C721.07 249.667 719.504 252.5 717.37 254.3C715.237 256.1 712.504 257 709.17 257C705.97 257 703.37 256.3 701.37 254.9C699.37 253.433 697.904 251.533 696.97 249.2C696.037 246.867 695.57 244.433 695.57 241.9V214.6C695.57 212.267 695.47 210.9 695.27 210.5C695.137 210.1 694.504 209.833 693.37 209.7L687.87 209.2V206.5H695.57V193.4L703.77 191.7V206.5H720.07V209.7H703.77V242.7C703.77 246.9 704.337 249.8 705.47 251.4C706.67 253 708.237 253.8 710.17 253.8C712.104 253.8 713.57 253.067 714.57 251.6C715.637 250.133 716.404 247.733 716.87 244.4L722.07 245.8ZM753.342 253.4V256H727.742V253.4L733.242 252.8C734.309 252.667 734.942 252.4 735.142 252C735.342 251.6 735.442 250.233 735.442 247.9V214.6C735.442 212.267 735.342 210.9 735.142 210.5C735.009 210.1 734.376 209.833 733.242 209.7L727.742 209.2V206.5H735.442V199.3C735.442 196.167 735.909 193.2 736.842 190.4C737.842 187.6 739.542 185.333 741.942 183.6C744.342 181.867 747.642 181 751.842 181C757.376 181 761.476 182.5 764.142 185.5C766.809 188.5 767.776 192.167 767.042 196.5L759.242 197.6C759.842 193 759.509 189.633 758.242 187.5C757.042 185.3 754.909 184.2 751.842 184.2C750.109 184.2 748.609 184.6 747.342 185.4C746.142 186.133 745.209 187.5 744.542 189.5C743.942 191.433 743.642 194.233 743.642 197.9V206.5H759.542V209.7H743.642V247.9C743.642 250.233 743.742 251.633 743.942 252.1C744.142 252.5 744.776 252.733 745.842 252.8L753.342 253.4ZM809.191 230.2V232.2C809.191 239.733 807.291 245.767 803.491 250.3C799.758 254.767 794.425 257 787.491 257C780.625 257 775.291 254.767 771.491 250.3C767.758 245.767 765.891 239.733 765.891 232.2V230.2C765.891 222.733 767.758 216.767 771.491 212.3C775.225 207.767 780.558 205.5 787.491 205.5C794.425 205.5 799.758 207.767 803.491 212.3C807.291 216.767 809.191 222.733 809.191 230.2ZM800.191 228.2C800.191 221.267 799.091 216.3 796.891 213.3C794.758 210.233 791.625 208.7 787.491 208.7C783.425 208.7 780.291 210.233 778.091 213.3C775.958 216.3 774.891 221.267 774.891 228.2V234.2C774.891 241.2 775.958 246.233 778.091 249.3C780.291 252.3 783.425 253.8 787.491 253.8C791.625 253.8 794.758 252.3 796.891 249.3C799.091 246.233 800.191 241.2 800.191 234.2V228.2ZM818.155 184.7V182H834.055V247.9C834.055 250.233 834.155 251.6 834.355 252C834.555 252.4 835.189 252.667 836.255 252.8L841.755 253.4V256H818.155V253.4L823.655 252.8C824.722 252.667 825.355 252.4 825.555 252C825.755 251.6 825.855 250.233 825.855 247.9V190.1C825.855 187.767 825.755 186.4 825.555 186C825.355 185.6 824.722 185.333 823.655 185.2L818.155 184.7ZM859.852 195.3C858.252 195.3 856.919 194.8 855.852 193.8C854.852 192.733 854.352 191.367 854.352 189.7C854.352 188.1 854.852 186.8 855.852 185.8C856.919 184.8 858.252 184.3 859.852 184.3C861.452 184.3 862.752 184.8 863.752 185.8C864.819 186.8 865.352 188.1 865.352 189.7C865.352 191.367 864.819 192.733 863.752 193.8C862.752 194.8 861.452 195.3 859.852 195.3ZM848.152 209.2V206.5H864.052V247.9C864.052 250.233 864.152 251.6 864.352 252C864.552 252.4 865.186 252.667 866.252 252.8L871.752 253.4V256H848.152V253.4L853.652 252.8C854.719 252.667 855.352 252.4 855.552 252C855.752 251.6 855.852 250.233 855.852 247.9V214.6C855.852 212.267 855.752 210.9 855.552 210.5C855.352 210.1 854.719 209.833 853.652 209.7L848.152 209.2ZM924.035 230.2V232.2C924.035 239.733 922.135 245.767 918.335 250.3C914.602 254.767 909.268 257 902.335 257C895.468 257 890.135 254.767 886.335 250.3C882.602 245.767 880.735 239.733 880.735 232.2V230.2C880.735 222.733 882.602 216.767 886.335 212.3C890.068 207.767 895.402 205.5 902.335 205.5C909.268 205.5 914.602 207.767 918.335 212.3C922.135 216.767 924.035 222.733 924.035 230.2ZM915.035 228.2C915.035 221.267 913.935 216.3 911.735 213.3C909.602 210.233 906.468 208.7 902.335 208.7C898.268 208.7 895.135 210.233 892.935 213.3C890.802 216.3 889.735 221.267 889.735 228.2V234.2C889.735 241.2 890.802 246.233 892.935 249.3C895.135 252.3 898.268 253.8 902.335 253.8C906.468 253.8 909.602 252.3 911.735 249.3C913.935 246.233 915.035 241.2 915.035 234.2V228.2Z" fill="black"/>
</svg>
