<svg width="208" height="80" viewBox="0 0 208 80" fill="none" xmlns="http://www.w3.org/2000/svg">
<path d="M1 40C1 40 21 23 21 1C22 25 41 40 41 40C41 40 22.7675 52.155 21.8978 74.0381C22.0294 75.6403 22.0682 77.2945 22 79C21.8636 77.2945 21.8342 75.6403 21.8978 74.0381C20.1008 52.155 1 40 1 40Z" fill="white" stroke="black"/>
<path d="M84 40C84 40 104 23 104 1C105 25 124 40 124 40C124 40 105.767 52.155 104.898 74.0381C105.029 75.6403 105.068 77.2945 105 79C104.864 77.2945 104.834 75.6403 104.898 74.0381C103.101 52.155 84 40 84 40Z" fill="white" stroke="black"/>
<path d="M167 40C167 40 187 23 187 1C188 25 207 40 207 40C207 40 188.767 52.155 187.898 74.0381C188.029 75.6403 188.068 77.2945 188 79C187.864 77.2945 187.834 75.6403 187.898 74.0381C186.101 52.155 167 40 167 40Z" fill="white" stroke="black"/>
</svg>
