<svg width="835" height="360" viewBox="0 0 835 360" fill="none" xmlns="http://www.w3.org/2000/svg">
<path d="M804.343 102.177C808.356 115.942 801.562 131.321 785.519 147.391C769.497 163.442 744.354 180.071 711.982 196.31C647.245 228.785 553.701 259.646 446.695 281.184C339.69 302.722 239.518 310.852 164.072 306.594C126.344 304.464 94.8298 299.238 71.743 291.06C48.6278 282.871 34.1158 271.781 30.1026 258.016C26.0893 244.251 32.8842 228.872 48.9266 212.801C64.9493 196.751 90.0919 180.121 122.464 163.882C187.201 131.407 280.745 100.546 387.75 79.008C494.756 57.4699 594.928 49.3401 670.374 53.5987C708.101 55.7282 739.616 60.9539 762.703 69.1326C785.818 77.3213 800.33 88.4117 804.343 102.177Z" stroke="black"/>
<path d="M809.706 167.88C810.473 182.021 800.265 196.033 780.814 209.257C761.389 222.462 732.879 234.786 697.363 245.575C626.34 267.152 527.414 282.563 417.424 286.682C307.435 290.801 207.241 282.847 134.17 266.666C97.6306 258.574 67.9018 248.432 47.1256 236.732C26.3214 225.016 14.6382 211.823 13.8711 197.683C13.1041 183.542 23.3117 169.53 42.7631 156.306C62.1883 143.101 90.6985 130.777 126.214 119.988C197.237 98.4107 296.163 82.9997 406.153 78.8808C516.142 74.7619 616.336 82.7163 689.407 98.8973C725.946 106.989 755.675 117.131 776.451 128.831C797.256 140.547 808.939 153.739 809.706 167.88Z" stroke="black"/>
<path d="M165.075 306.107C165.075 315.289 157.926 322.699 149.149 322.699C140.372 322.699 133.223 315.289 133.223 306.107C133.223 296.925 140.372 289.516 149.149 289.516C157.926 289.516 165.075 296.925 165.075 306.107Z" stroke="black"/>
<path d="M673.627 53.1519C673.627 62.3341 666.478 69.7435 657.701 69.7435C648.924 69.7435 641.775 62.3341 641.775 53.1519C641.775 43.9698 648.924 36.5604 657.701 36.5604C666.478 36.5604 673.627 43.9698 673.627 53.1519Z" stroke="black"/>
</svg>
